<svg xmlns="http://www.w3.org/2000/svg" viewBox="0 0 397.5 440.4">
	<defs><style>.cls-1{fill:#fff;}.cls-2{fill:#005cb9;}.cls-3{fill:#ffd040;}.cls-4{fill:#ffd041;}</style></defs>
	<g id="Livello_2" data-name="Livello 2">
		<g id="logo-payoff">
			<path class="cls-1" d="M390.7,31.5C384.4,18.1,370.9,1.8,342.3,0H57.1c-7,.6-20.6,2.8-33,10.9C8.3,21.3,0,38.2,0,59.9v273a73.18,73.18,0,0,0,7.5,29.8c7,13.8,21.8,30.3,53.1,30.3H337a75,75,0,0,0,30-7.4c13.9-6.9,30.5-21.6,30.5-52.7V59.9a73.48,73.48,0,0,0-6.8-28.4Z"/>
			<path class="cls-2" d="M385.3,36.1c-6.2-13-19.3-28.8-47-30.6H61.1C54.3,6.1,41,8.2,29,16.1,13.7,26.3,5.6,42.7,5.6,63.8V329a71.18,71.18,0,0,0,7.3,29c6.8,13.4,21.2,29.4,51.6,29.4H333.1a73,73,0,0,0,29.2-7.2c13.5-6.7,29.7-21,29.7-51.2V63.8a75.26,75.26,0,0,0-6.7-27.7Z"/>
			<path class="cls-3" d="M83.4,198.2c0,14.3,9.8,22.6,19.4,30.6,8.2,6.9,16,13.5,16,23.3,0,6.9-3.7,13.9-12,13.9-8.1,0-10.3-9.9-12.3-18.7-1.5-6.6-2.6-11.8-6.4-11.8-4.9,0-5.4,4.5-5.7,11.8l-.1,1.6c-.1,3.1-.3,7.4-.3,14.9,0,8.4,15,9.6,23.9,9.6,18.8,0,32.9-14.4,32.9-33.4,0-16.6-10.9-25.1-20.4-32.6-8-6.3-14.9-11.7-14.9-20.6,0-6.4,3.1-10.2,8.3-10.2,6.5,0,9.6,8.4,12.1,15.2,2,5.4,3.6,9.7,6.8,9.7,4.5,0,4.5-3.5,4.5-8l.1-15.3c0-3.3-1.9-4.2-3.6-5.1l-.5-.2a46.7,46.7,0,0,0-17.5-3.7c-14.9-.1-30.3,10.8-30.3,29"/>
			<path class="cls-4" d="M163.8,253.4V217.5c0-2.4,2.9-4,5.4-4,6.9,0,10.8,8.4,10.8,23.1,0,12-1.6,26.4-9.2,26.4-3.4,0-7-3.4-7-9.6m4.6-47.9-2.6,1.9a19.68,19.68,0,0,1-2.3,1.6c-.1-.9-.1-2.7-.1-3.7,0-1.5,0-3.9-2.2-3.9-.7,0-1.6.5-4.1,2a59.15,59.15,0,0,1-12.6,6.2c-6.7,2.1-9.6,3.3-9.6,5.5,0,2.5,2.2,2.9,3.7,3.1,2.2.4,4.4.7,4.4,5.7v64.7c0,4-2.2,4.7-5.6,5.5-1.9.4-4.3.9-4.3,3.2a3.44,3.44,0,0,0,3.5,3.3l13.9-.6,20.1.6c4.4,0,4.8-2.4,4.8-3.2,0-3.4-3.7-3.5-6.1-3.7-3.5-.1-5.4-3-5.4-8.2V268.4c0-.6.3-.7.5-.7s1.6.5,2.7.8c2.7.9,6.4,2.2,9.2,2.2,16.1,0,27.3-17.7,27.3-33.6,0-16.5-6.3-35.8-24.2-35.8-4.5.1-8.4,2.4-11,4.2"/>
			<path class="cls-1" d="M223.6,204c-4.6,2.4-10.8,5.7-16.4,7.1-2.4.6-3.8,1.9-3.8,3.5,0,2.3,2.3,2.8,4,3.1,2.7.6,3.9,1.1,3.9,3.2v38.7c0,1.5-.9,1.9-3,2.4-1.7.4-4,1-4,3.5,0,2.1,1.8,3.4,4.6,3.4l3-.1c2.5-.1,6.2-.4,10.7-.4l12.3.5c5,0,5.8-2.1,5.8-3.4,0-2.8-2.4-3.2-4.2-3.5-2.4-.5-4.3-.8-4.3-4.5V207.3c0-3.4,0-5.9-2.6-5.9-1,0-2.5.7-6,2.6m-13.5-17.2c0,6.6,4.9,11.5,11.7,11.5s11.7-4.8,11.7-11.5-4.9-11.4-11.7-11.4-11.7,4.8-11.7,11.4m60.7,20.8-1.8,1.6c-.5.4-1,.9-1.2,1v-5.8c0-2.7-1.5-3-2.2-3s-1.4.4-4,2c-4,2.3-10.6,6.3-16.8,7.7-2.1.5-3.3,1.8-3.3,3.5,0,2.2,2,2.8,3.5,3.1,2.1.5,3.3.9,3.3,3.2v38.7c0,1.8-.9,2.1-2.7,2.5-1.5.4-3.7.9-3.7,3.4,0,2.3,1.6,3.5,4.6,3.5l3.4-.2c2.3-.2,5.5-.4,8.5-.4l6.4.3,5.5.3c1.1,0,4.5,0,4.5-3,0-2.5-1.8-3.1-3-3.4-1.5-.4-2.6-.8-2.6-4.2V220.5c0-4.7,2.4-7.3,6.8-7.3s6.5,2.6,6.5,7.3v39.1c0,2.2-.8,2.4-2.1,2.7s-3.1.7-3.1,3.2c0,2.3,1.5,3.5,4.6,3.5l4.1-.2c2-.1,4.2-.3,7-.3l6.7.3,7.3.3c3.2,0,4.4-1.8,4.4-3.5,0-2.4-2-2.8-3.5-3.1a10.88,10.88,0,0,1-2.4-.7c-.9-.4-2-3.7-2-7.2V222.5c0-13.2-6.8-21.1-18.2-21.1-6.2,0-11.3,3.4-14.5,6.2M128.6,125.5c0,.8.3,1,2.9,1,3.6,0,4.8-1.3,5.7-3.4.9-2.3.9-3.9,2.6-3.9.8,0,1.3.5,1.3,1.8,0,2.1-.3,4.8-.3,8,0,3.5.3,5.5.3,7.5,0,1.3-.3,2-1.6,2-1.6,0-1.8-1.5-2.9-4.3-.8-2.2-1.8-3.7-5.3-3.7-2,0-2.8.2-2.8.8v20.9c0,3,1,3.5,4.1,3.5,12.4,0,8.9-13.7,13.9-13.7,1.5,0,1.8-1.4,1.8,9.5,0,7.8-.2,8.1-2.9,8.1s-7.5-.4-16.4-.4c-11.5,0-14.7.4-16.5.4-1.4,0-2.2-.3-2.2-1.3,0-1.3.6-2,2.3-2.2,2.2-.4,3-1.7,3-5V108.5c0-6.5-5.2-3-5.2-6.5,0-1.3,1.8-1.3,3.9-1.3,4.2,0,9.9.4,14.9.4,3.2,0,10-.4,15-.4,1.8,0,2.3.7,2.3,2.1v9.8c0,2.1-.7,3-2.1,3-2.7,0-3.8-10.9-12.9-10.9-2.1,0-3.1.6-3.1,1.4l.2,19.4Zm90.7,2.9c-.3,0-.8-.2-.8-.5v-20c0-3.5.9-4.3,2.6-4.3,4.5,0,7.6,5.7,7.6,12.2.1,7.4-3.5,12.6-9.4,12.6m22.8,23.5-5.8-16.4c-1.1-3.7-2.1-6.1-3.1-7.5,4-1.4,8.5-4.7,8.5-12.7,0-9.8-6.7-14.6-15.7-14.6-5.4,0-10.4.4-13.8.4-5.3,0-7.9-.4-9.6-.4-1.4,0-2.2.3-2.2,1.3s1.4,1.4,2.7,1.7,2.7,1.3,2.7,4.1v44.8c0,2.8-1.3,3.3-2.7,3.5s-2.3.6-2.3,2.2c0,1,.8,1.3,1.8,1.3,1.8,0,4.3-.4,9.6-.4s7.8.4,9.3.4,2.3-.3,2.3-1.3c0-1.8-1.4-1.5-3-2.2-2-.9-2.1-3.2-2.1-6V132.7c0-.4.2-.7.8-.7,2.4,0,3.3,2.1,4.4,5.4l5.9,18c1.3,4,1.6,4.4,5.2,4.4h11.3a1.34,1.34,0,0,0,1.5-1.4c-.1-2.8-3.2.2-5.7-6.5m27.8-49.3c-5.5,0-8.4,11.6-8.4,21.3,0,17.9,3.9,33.9,10.7,33.9,5,0,7.9-9.1,7.9-23.2,0-14.8-3.5-32-10.2-32m1,58.2c-14.9,0-23.3-16.6-23.3-30.6,0-15.9,8.1-30.6,23.3-30.6,14.9,0,23.3,16.6,23.3,30.6,0,15.9-8.2,30.6-23.3,30.6m-95.7,0c-10.9,0-19.5-5-19.5-17.1V107.8c0-1.7-.5-3.3-1.5-3.5-1.8-.4-3.5-.9-3.5-2.2,0-.7.4-1.3,1.6-1.3,2,0,4.6.4,9.9.4,2.8,0,5.2-.4,8.8-.4,1.2,0,2.3.5,2.2,1.7-.3,2.4-4.5.1-4.5,4.2v40.5c0,6.8,2.6,9.9,7.4,9.9h-1.6c4.8,0,7.4-3.1,7.4-9.9V106.7c0-4.1-4.3-1.8-4.5-4.2-.1-1.2,1-1.7,2.2-1.7,3.6,0,6,.4,8.8.4,5.3,0,7.9-.4,9.9-.4,1.2,0,1.6.6,1.6,1.3,0,1.3-1.7,1.9-3.5,2.2-1,.2-1.5,1.9-1.5,3.5v35.9c0,12.1-8.6,17.1-19.5,17.1Z"/>
			<path class="cls-3" d="M213.1,40.5a1.74,1.74,0,0,0,.6-1.1,1.54,1.54,0,0,0-1.5-1.5H201.9l-3.2-9.7a1.41,1.41,0,0,0-1.4-1,1.5,1.5,0,0,0-1.4,1.1L192.7,38H182.4a1.46,1.46,0,0,0-.8,2.7l8.4,6-3.1,9.5a1.27,1.27,0,0,0-.1.6,1.54,1.54,0,0,0,1.5,1.5,1.61,1.61,0,0,0,.9-.3l8.2-5.9,8.2,5.9v-.1a1.61,1.61,0,0,0,.9.3,1.54,1.54,0,0,0,1.5-1.5c0-.2,0-.3-.1-.4l-3.2-9.7,8.4-6.1Zm0,304.5a1.74,1.74,0,0,0,.6-1.1,1.54,1.54,0,0,0-1.5-1.5H201.9l-3.2-9.7a1.41,1.41,0,0,0-1.4-1,1.5,1.5,0,0,0-1.4,1.1l-3.2,9.7H182.4a1.46,1.46,0,0,0-.8,2.7l8.4,6-3.1,9.5a1.09,1.09,0,0,0-.1.5,1.54,1.54,0,0,0,1.5,1.5,1.61,1.61,0,0,0,.9-.3l8.2-5.9,8.2,5.9a1.8,1.8,0,0,0,.9.4,1.54,1.54,0,0,0,1.5-1.5.9.9,0,0,0-.1-.5l-3.2-9.6,8.4-6.2Zm77.2-23.6a1.74,1.74,0,0,0,.6-1.1,1.54,1.54,0,0,0-1.5-1.5H279.1l-3.2-9.7a1.48,1.48,0,0,0-2.8,0l-3.2,9.7H259.6a1.46,1.46,0,0,0-.8,2.7l8.3,6L264,337a1.09,1.09,0,0,0-.1.5,1.54,1.54,0,0,0,1.5,1.5,1.61,1.61,0,0,0,.9-.3l8.2-5.9,8.2,5.9a1.8,1.8,0,0,0,.9.4,1.54,1.54,0,0,0,1.5-1.5c0-.2,0-.3-.1-.4l-3.1-9.8Zm59.1-53.8a1.74,1.74,0,0,0,.6-1.1,1.54,1.54,0,0,0-1.5-1.5H338.2l-3.2-9.7a1.46,1.46,0,0,0-2.8.1l-3.2,9.7H318.7a1.46,1.46,0,0,0-.8,2.7l8.3,6-3.1,9.5a1.09,1.09,0,0,0-.1.5,1.54,1.54,0,0,0,1.5,1.5,1.61,1.61,0,0,0,.9-.3l8.2-5.9,8.2,5.9a1.8,1.8,0,0,0,.9.4,1.54,1.54,0,0,0,1.5-1.5.9.9,0,0,0-.1-.5l-3.1-9.7,8.4-6.1Zm16.5-78.2a1.74,1.74,0,0,0,.6-1.1,1.54,1.54,0,0,0-1.5-1.5H354.7l-3.2-9.7a1.5,1.5,0,0,0-1.4-1,1.39,1.39,0,0,0-1.4,1.1l-3.1,9.7H335.3a1.46,1.46,0,0,0-.8,2.7l8.3,6-3.1,9.5a1.27,1.27,0,0,0-.1.6,1.54,1.54,0,0,0,1.5,1.5,1.61,1.61,0,0,0,.9-.3l8.2-5.9,8.2,5.9a1.61,1.61,0,0,0,.9.3,1.54,1.54,0,0,0,1.5-1.5c0-.2-.1-.3-.1-.4l-3.2-9.7,8.4-6.2ZM347,114.5a1.74,1.74,0,0,0,.6-1.1,1.54,1.54,0,0,0-1.5-1.5H335.8l-3.2-9.7a1.46,1.46,0,0,0-2.8.1l-3.2,9.7H316.3a1.46,1.46,0,0,0-.8,2.7l8.3,6-3.1,9.5a1.09,1.09,0,0,0-.1.5,1.54,1.54,0,0,0,1.5,1.5,1.61,1.61,0,0,0,.9-.3l8.2-5.9,8.2,5.9a1.8,1.8,0,0,0,.9.4,1.47,1.47,0,0,0,1.5-1.5.9.9,0,0,0-.1-.5l-3.2-9.7,8.5-6.1ZM293.6,55.9a1.74,1.74,0,0,0,.6-1.1,1.54,1.54,0,0,0-1.5-1.5H282.4l-3.2-9.7a1.5,1.5,0,0,0-1.4-1,1.39,1.39,0,0,0-1.4,1.1l-3.2,9.7H262.8a1.46,1.46,0,0,0-.8,2.7l8.3,6-3.1,9.5v.1a.9.9,0,0,0-.1.5,1.54,1.54,0,0,0,1.5,1.5,1.61,1.61,0,0,0,.9-.3l8.2-5.9,8.2,5.9a1.61,1.61,0,0,0,.9.3,1.54,1.54,0,0,0,1.5-1.5c0-.2-.1-.3-.1-.4L285,62.1l8.6-6.2ZM104.1,321.4a1.74,1.74,0,0,1-.6-1.1,1.54,1.54,0,0,1,1.5-1.5h10.3l3.2-9.7a1.5,1.5,0,0,1,1.4-1,1.41,1.41,0,0,1,1.4,1l3.2,9.7h10.3a1.46,1.46,0,0,1,.8,2.7l-8.3,6,3.1,9.5h-.1a1.09,1.09,0,0,1,.1.5,1.54,1.54,0,0,1-1.5,1.5,1.61,1.61,0,0,1-.9-.3h-.1l-8.2-5.9-8.2,5.9a1.8,1.8,0,0,1-.9.4,1.54,1.54,0,0,1-1.5-1.5c0-.2.1-.3.1-.4l3.2-9.7-8.3-6.1ZM45,267.6a1.74,1.74,0,0,1-.6-1.1,1.54,1.54,0,0,1,1.5-1.5H56.2l3.2-9.7a1.46,1.46,0,0,1,2.8.1l3.2,9.7H75.7a1.46,1.46,0,0,1,.8,2.7l-8.3,6,3.1,9.5h-.1a1.09,1.09,0,0,1,.1.5,1.54,1.54,0,0,1-1.5,1.5,1.61,1.61,0,0,1-.9-.3h-.1l-8.2-5.9L52.4,285a1.8,1.8,0,0,1-.9.4,1.54,1.54,0,0,1-1.5-1.5c0-.2.1-.3.1-.5l3.2-9.7ZM28.6,189.4a1.74,1.74,0,0,1-.6-1.1,1.54,1.54,0,0,1,1.5-1.5H39.8l3.2-9.7a1.5,1.5,0,0,1,1.4-1,1.39,1.39,0,0,1,1.4,1.1l3.2,9.7H59.3a1.46,1.46,0,0,1,.8,2.7l-8.3,6,3.1,9.5h-.1a1.27,1.27,0,0,1,.1.6,1.54,1.54,0,0,1-1.5,1.5,1.61,1.61,0,0,1-.9-.3L44.3,201l-8.2,5.9H36a1.4,1.4,0,0,1-.9.3,1.54,1.54,0,0,1-1.5-1.5c0-.2.1-.3.1-.4l3.2-9.7-8.3-6.2Zm18.8-74.9a1.74,1.74,0,0,1-.6-1.1,1.54,1.54,0,0,1,1.5-1.5H58.6l3.2-9.7a1.46,1.46,0,0,1,2.8.1l3.2,9.7H78.1a1.46,1.46,0,0,1,.8,2.7l-8.3,6,3.1,9.5h-.1a1.09,1.09,0,0,1,.1.5,1.54,1.54,0,0,1-1.5,1.5,1.61,1.61,0,0,1-.9-.3h-.1L63,126l-8.2,5.9a1.8,1.8,0,0,1-.9.4,1.47,1.47,0,0,1-1.5-1.5c0-.2.1-.3.1-.5l3.2-9.7-8.3-6.1Zm53.4-58.6a1.74,1.74,0,0,1-.6-1.1,1.54,1.54,0,0,1,1.5-1.5H112l3.2-9.7a1.41,1.41,0,0,1,1.4-1,1.39,1.39,0,0,1,1.4,1.1l3.2,9.7h10.3a1.46,1.46,0,0,1,.8,2.7l-8.3,6,3.1,9.5-.1.1a.9.9,0,0,1,.1.5,1.54,1.54,0,0,1-1.5,1.5,1.61,1.61,0,0,1-.9-.3h-.1l-8.2-5.9-8.2,5.9a1.61,1.61,0,0,1-.9.3,1.54,1.54,0,0,1-1.5-1.5c0-.2.1-.3.1-.4l3.2-9.7-8.3-6.2Z"/>
			<path class="cls-1" d="M40.3,427.3v4.3h-13v-23h5.6v18.7Zm15.2-10.6v-3.3H61v18.1H55.5v-3.3a6.16,6.16,0,0,1-2.2,2.6,6.87,6.87,0,0,1-3.6.9,7.74,7.74,0,0,1-4-1.1,7.35,7.35,0,0,1-2.8-3.2,11,11,0,0,1-1-4.9,11.17,11.17,0,0,1,1-5,7.35,7.35,0,0,1,2.8-3.2,7.74,7.74,0,0,1,4-1.1,6.87,6.87,0,0,1,3.6.9A5.53,5.53,0,0,1,55.5,416.7Zm-7.9,5.8a4.42,4.42,0,0,0,1.1,3.2,3.7,3.7,0,0,0,2.9,1.2,3.85,3.85,0,0,0,2.9-1.2,4.32,4.32,0,0,0,1.1-3.2,4.59,4.59,0,0,0-1.1-3.2,4.1,4.1,0,0,0-5.8,0A4,4,0,0,0,47.6,422.5Zm36.6,8.4a9.86,9.86,0,0,1-4.4.9,10.14,10.14,0,0,1-6.4-1.9,6.62,6.62,0,0,1-2.7-5.3h5.9a3.12,3.12,0,0,0,.9,2,2.72,2.72,0,0,0,2,.7,2.35,2.35,0,0,0,1.7-.6,2.11,2.11,0,0,0,.6-1.6,2,2,0,0,0-.6-1.5,7.1,7.1,0,0,0-1.4-1c-.6-.2-1.3-.5-2.3-.9-1.5-.5-2.6-1-3.6-1.4a6,6,0,0,1-2.4-2.1,5.7,5.7,0,0,1-1-3.6,5.78,5.78,0,0,1,1-3.5,6.63,6.63,0,0,1,2.9-2.3,10.84,10.84,0,0,1,4.2-.8,9.43,9.43,0,0,1,6.1,1.8,7,7,0,0,1,2.6,5h-6a3,3,0,0,0-.8-1.8,2.48,2.48,0,0,0-1.8-.7,2.77,2.77,0,0,0-1.6.5,1.89,1.89,0,0,0-.6,1.5,2.39,2.39,0,0,0,.5,1.4,3.81,3.81,0,0,0,1.3.9l2.3.9a21.77,21.77,0,0,1,3.6,1.5,7.91,7.91,0,0,1,2.4,2.1,5.7,5.7,0,0,1,1,3.6,7.57,7.57,0,0,1-.9,3.3,5.58,5.58,0,0,1-2.5,2.9Zm24.9-13.4a10.88,10.88,0,0,1,1,5,10.73,10.73,0,0,1-1,4.9,7.35,7.35,0,0,1-2.8,3.2,7.74,7.74,0,0,1-4,1.1,6.87,6.87,0,0,1-3.6-.9,5.62,5.62,0,0,1-2.2-2.6v11.9H90.9V413.4h5.6v3.3a6.16,6.16,0,0,1,2.2-2.6,6.87,6.87,0,0,1,3.6-.9,7.74,7.74,0,0,1,4,1.1,8,8,0,0,1,2.8,3.2Zm-12.6,5a4.77,4.77,0,0,0,1.1,3.2,4.1,4.1,0,0,0,5.8,0,4.77,4.77,0,0,0,1.1-3.2,5,5,0,0,0-1.1-3.3,3.7,3.7,0,0,0-2.9-1.2,3.85,3.85,0,0,0-2.9,1.2A4.41,4.41,0,0,0,96.5,422.5Zm21,1a4.33,4.33,0,0,0,1,2.9,3.24,3.24,0,0,0,2.4.9,3.17,3.17,0,0,0,2-.6,3.09,3.09,0,0,0,1.1-1.6h5.9a7.14,7.14,0,0,1-1.6,3.4,8.34,8.34,0,0,1-3.1,2.4,9.15,9.15,0,0,1-4.1.9,9.89,9.89,0,0,1-4.7-1.1,7.08,7.08,0,0,1-3.2-3.2,9.88,9.88,0,0,1-1.2-4.9,10,10,0,0,1,1.2-5,7.6,7.6,0,0,1,3.2-3.2,10.49,10.49,0,0,1,4.7-1.1,9.89,9.89,0,0,1,4.7,1.1,8,8,0,0,1,3.2,3.1,8.71,8.71,0,0,1,1.1,4.6,7.72,7.72,0,0,1-.2,1.5H117.5Zm3.7-5.9a3.49,3.49,0,0,0-2.5.9,3.75,3.75,0,0,0-1.1,2.7h7.1a3.34,3.34,0,0,0-1-2.7A3.66,3.66,0,0,0,121.2,417.6Zm26.6,1.9h-5.2a3.23,3.23,0,0,0-1-1.7,3.17,3.17,0,0,0-2-.6,2,2,0,0,0-1.4.4,1.66,1.66,0,0,0-.5,1.2,1.38,1.38,0,0,0,.9,1.3,9.59,9.59,0,0,0,2.8.8,29.4,29.4,0,0,1,3.4,1,5.33,5.33,0,0,1,2.3,1.6,5,5,0,0,1,1,3.1,5.38,5.38,0,0,1-.8,2.8,6.54,6.54,0,0,1-2.4,1.9,8.9,8.9,0,0,1-3.8.7,9.8,9.8,0,0,1-5.9-1.6,6.64,6.64,0,0,1-2.7-4.6h5.4a2.35,2.35,0,0,0,1,1.8,3.8,3.8,0,0,0,2.2.6,2,2,0,0,0,1.4-.4,1.66,1.66,0,0,0,.5-1.2,1.29,1.29,0,0,0-.9-1.3,14.45,14.45,0,0,0-2.9-.9q-1.95-.45-3.3-.9a5,5,0,0,1-2.2-1.6,4.48,4.48,0,0,1-.9-3,4.65,4.65,0,0,1,1.9-3.9,8.05,8.05,0,0,1,5.2-1.5,8.6,8.6,0,0,1,5.5,1.7,6.24,6.24,0,0,1,2.4,4.3Zm16.1-2.8v-3.3h5.5v18.1h-5.5v-3.3a6.16,6.16,0,0,1-2.2,2.6,6.87,6.87,0,0,1-3.6.9,7.74,7.74,0,0,1-4-1.1,7.35,7.35,0,0,1-2.8-3.2,11,11,0,0,1-1-4.9,11.17,11.17,0,0,1,1-5,7.35,7.35,0,0,1,2.8-3.2,7.74,7.74,0,0,1,4-1.1,6.87,6.87,0,0,1,3.6.9A6.16,6.16,0,0,1,163.9,416.7Zm-8,5.8a4.42,4.42,0,0,0,1.1,3.2,3.7,3.7,0,0,0,2.9,1.2,3.85,3.85,0,0,0,2.9-1.2,4.32,4.32,0,0,0,1.1-3.2,4.59,4.59,0,0,0-1.1-3.2,4.1,4.1,0,0,0-5.8,0A4.42,4.42,0,0,0,155.9,422.5Zm26.6-17.1a3.65,3.65,0,0,1,2.4.8,2.9,2.9,0,0,1,0,4.2,3.19,3.19,0,0,1-2.4.8,3.65,3.65,0,0,1-2.4-.8,2.72,2.72,0,0,1-.9-2.1,2.88,2.88,0,0,1,.9-2.1A3.65,3.65,0,0,1,182.5,405.4Zm2.8,26.1h-5.6V413.4h5.6ZM207.4,421v10.5h-5.5v-9.9a3.56,3.56,0,0,0-1-2.8,3.25,3.25,0,0,0-2.6-1,3.69,3.69,0,0,0-2.7,1.1,4.14,4.14,0,0,0-1,3.1v9.6H189V413.4h5.6v3.3a6.4,6.4,0,0,1,2.3-2.6,6.87,6.87,0,0,1,3.6-.9,6.42,6.42,0,0,1,5,2.1A8,8,0,0,1,207.4,421Zm14,10.5h-2.5a7.16,7.16,0,0,1-5-1.6c-1.2-1.1-1.8-2.8-1.8-5.2V418h-2.4v-4.6h2.4v-4.5h5.6v4.5h3.6v4.7h-3.6v6.8a1.55,1.55,0,0,0,1.9,1.9h1.8Zm7.6-8a4.33,4.33,0,0,0,1,2.9,3.24,3.24,0,0,0,2.4.9,3.17,3.17,0,0,0,2-.6,3.09,3.09,0,0,0,1.1-1.6h5.9a7.14,7.14,0,0,1-1.6,3.4,8.34,8.34,0,0,1-3.1,2.4,9.15,9.15,0,0,1-4.1.9,9.89,9.89,0,0,1-4.7-1.1,7.08,7.08,0,0,1-3.2-3.2,11.08,11.08,0,0,1-1.2-4.9,10,10,0,0,1,1.2-5,7.6,7.6,0,0,1,3.2-3.2,10.49,10.49,0,0,1,4.7-1.1,9.89,9.89,0,0,1,4.7,1.1,8,8,0,0,1,3.2,3.1,9.77,9.77,0,0,1,1.1,4.6,7.72,7.72,0,0,1-.2,1.5H229Zm3.7-5.9a3.49,3.49,0,0,0-2.5.9,3.75,3.75,0,0,0-1.1,2.7h7.1a3.34,3.34,0,0,0-1-2.7A3.66,3.66,0,0,0,232.7,417.6Zm17.5,13.9h-5.6V407.4h5.6Zm9.4,0H254V407.4h5.6Zm6.6-26.1a3.65,3.65,0,0,1,2.4.8,2.72,2.72,0,0,1,.9,2.1,2.88,2.88,0,0,1-.9,2.1,3.19,3.19,0,0,1-2.4.8,3.65,3.65,0,0,1-2.4-.8,2.58,2.58,0,0,1-.9-2.1,2.88,2.88,0,0,1,.9-2.1A3.19,3.19,0,0,1,266.2,405.4Zm2.8,26.1h-5.6V413.4H269Zm16.5-14.8v-3.3H291v18a10,10,0,0,1-1,4.6,6.64,6.64,0,0,1-3,3.2,9.49,9.49,0,0,1-5,1.2,10.06,10.06,0,0,1-6.5-1.9,7.8,7.8,0,0,1-2.9-5.2h5.5a3,3,0,0,0,1.2,1.7,4.27,4.27,0,0,0,2.4.6,3.86,3.86,0,0,0,2.8-1,4.26,4.26,0,0,0,1.1-3.2v-3.2a6.16,6.16,0,0,1-2.2,2.6,6.87,6.87,0,0,1-3.6.9,7.74,7.74,0,0,1-4-1.1,7.35,7.35,0,0,1-2.8-3.2,11,11,0,0,1-1-4.9,11.17,11.17,0,0,1,1-5,7.35,7.35,0,0,1,2.8-3.2,7.74,7.74,0,0,1,4-1.1,6.87,6.87,0,0,1,3.6.9A6.72,6.72,0,0,1,285.5,416.7Zm-8,5.8a4.42,4.42,0,0,0,1.1,3.2,3.7,3.7,0,0,0,2.9,1.2,3.85,3.85,0,0,0,2.9-1.2,4.77,4.77,0,0,0,1.1-3.2,4.59,4.59,0,0,0-1.1-3.2,4.1,4.1,0,0,0-5.8,0A4.42,4.42,0,0,0,277.5,422.5Zm21.8,1a4.33,4.33,0,0,0,1,2.9,3.24,3.24,0,0,0,2.4.9,3.17,3.17,0,0,0,2-.6,3.09,3.09,0,0,0,1.1-1.6h5.9a7.14,7.14,0,0,1-1.6,3.4,8.34,8.34,0,0,1-3.1,2.4,9.46,9.46,0,0,1-4.1.9,9.89,9.89,0,0,1-4.7-1.1,7.08,7.08,0,0,1-3.2-3.2,9.88,9.88,0,0,1-1.2-4.9,10,10,0,0,1,1.2-5,7.6,7.6,0,0,1,3.2-3.2,10.49,10.49,0,0,1,4.7-1.1,9.89,9.89,0,0,1,4.7,1.1,8,8,0,0,1,3.2,3.1,9.77,9.77,0,0,1,1.1,4.6,7.72,7.72,0,0,1-.2,1.5H299.3Zm3.7-5.9a3.49,3.49,0,0,0-2.5.9,3.75,3.75,0,0,0-1.1,2.7h7.1a3.34,3.34,0,0,0-1-2.7A3.66,3.66,0,0,0,303,417.6Zm30.3,3.4v10.5h-5.6v-9.9a3.56,3.56,0,0,0-1-2.8,3.25,3.25,0,0,0-2.6-1,3.69,3.69,0,0,0-2.7,1.1,4.14,4.14,0,0,0-1,3.1v9.6h-5.6V413.4h5.6v3.3a6.4,6.4,0,0,1,2.3-2.6,6.87,6.87,0,0,1,3.6-.9,6.42,6.42,0,0,1,5,2.1,7.65,7.65,0,0,1,2,5.7Zm13.9,10.5h-2.5a7.16,7.16,0,0,1-5-1.6c-1.2-1.1-1.8-2.8-1.8-5.2V418h-2.4v-4.6h2.4v-4.5h5.6v4.5h3.6v4.7h-3.6v6.8a1.55,1.55,0,0,0,1.9,1.9h1.8Zm7.6-8a4.33,4.33,0,0,0,1,2.9,3.24,3.24,0,0,0,2.4.9,3.17,3.17,0,0,0,2-.6,3.09,3.09,0,0,0,1.1-1.6h5.9a7.14,7.14,0,0,1-1.6,3.4,8.34,8.34,0,0,1-3.1,2.4,9.46,9.46,0,0,1-4.1.9,9.89,9.89,0,0,1-4.7-1.1,7.08,7.08,0,0,1-3.2-3.2,9.88,9.88,0,0,1-1.2-4.9,10,10,0,0,1,1.2-5,7.6,7.6,0,0,1,3.2-3.2,10.49,10.49,0,0,1,4.7-1.1,9.89,9.89,0,0,1,4.7,1.1,8,8,0,0,1,3.2,3.1,9.77,9.77,0,0,1,1.1,4.6,7.72,7.72,0,0,1-.2,1.5H354.8Zm3.7-5.9a3.49,3.49,0,0,0-2.5.9,3.75,3.75,0,0,0-1.1,2.7H362a3.34,3.34,0,0,0-1-2.7A3.66,3.66,0,0,0,358.5,417.6Z"/>
		</g>
	</g>
</svg>
